<svg xmlns="http://www.w3.org/2000/svg" width="256" height="384" viewBox="0 0 256 384" shape-rendering="crispEdges">
  <title>자율군단 아이소메트릭 battlefield map atlas</title>
  <g data-kind="ground-a" transform="translate(0 0)"><polygon points="32,64 63,80 32,95 1,80" fill="#101815"/><polygon points="32,66 60,80 32,93 4,80" fill="#415c45"/><rect x="18" y="79" width="3" height="2" fill="#587052"/><rect x="42" y="83" width="2" height="2" fill="#304638"/></g>
  <g data-kind="ground-b" transform="translate(64 0)"><polygon points="32,64 63,80 32,95 1,80" fill="#101815"/><polygon points="32,66 60,80 32,93 4,80" fill="#587052"/><path d="M11 82L26 89M41 70L53 76" fill="none" stroke="#304638" stroke-width="2" stroke-linecap="square"/></g>
  <g data-kind="rough" transform="translate(128 0)"><polygon points="32,64 63,80 32,95 1,80" fill="#101815"/><polygon points="32,66 60,80 32,93 4,80" fill="#776b46"/><path d="M8 80L25 88M21 73L43 85M37 70L56 80" fill="none" stroke="#9b8956" stroke-width="3" stroke-linecap="square"/></g>
  <g data-kind="blocked" transform="translate(192 0)"><polygon points="32,64 63,80 32,95 1,80" fill="#101815"/><polygon points="32,66 60,80 32,93 4,80" fill="#304638"/><polygon points="15,78 25,61 39,63 51,80 32,89" fill="#101815"/><polygon points="19,77 27,64 38,66 46,79 32,85" fill="#776b46"/></g>
  <g data-kind="water" transform="translate(0 96)"><polygon points="32,64 63,80 32,95 1,80" fill="#101815"/><polygon points="32,66 60,80 32,93 4,80" fill="#24545d"/><path d="M8 79L21 75L34 79L48 75L57 78M12 85L27 81L40 85L53 82" fill="none" stroke="#3c7b7d" stroke-width="2" stroke-linecap="square"/></g>
  <g data-kind="bridge" transform="translate(64 96)"><polygon points="32,64 63,80 32,95 1,80" fill="#101815"/><polygon points="32,66 60,80 32,93 4,80" fill="#24545d"/><polygon points="9,72 22,66 56,83 43,90" fill="#101815"/><polygon points="12,72 22,68 53,83 43,88" fill="#9a7445"/><path d="M18 69L49 85M13 75L44 90" fill="none" stroke="#c19a5d" stroke-width="2" stroke-linecap="square"/><path d="M20 68L11 83M28 72L19 87M37 76L28 91M46 80L38 91" fill="none" stroke="#101815" stroke-width="1" stroke-linecap="square"/></g>
  <g data-kind="ford" transform="translate(128 96)"><polygon points="32,64 63,80 32,95 1,80" fill="#101815"/><polygon points="32,66 60,80 32,93 4,80" fill="#24545d"/><polygon points="7,75 16,71 58,85 49,90" fill="#776b46"/><rect x="18" y="75" width="7" height="4" fill="#9b8956"/><rect x="31" y="80" width="7" height="4" fill="#9b8956"/><rect x="44" y="84" width="7" height="4" fill="#9b8956"/></g>
  <g data-kind="spawn" transform="translate(192 96)"><polygon points="32,64 63,80 32,95 1,80" fill="#101815"/><polygon points="32,66 60,80 32,93 4,80" fill="#415c45"/><path d="M12 80L32 70L52 80L32 90Z" fill="none" stroke="#73d5c8" stroke-width="2" stroke-linecap="square" stroke-dasharray="3 3"/><rect x="30" y="76" width="4" height="8" fill="#73d5c8"/></g>
  <g data-kind="destination" transform="translate(0 192)"><polygon points="32,64 63,80 32,95 1,80" fill="#101815"/><polygon points="32,66 60,80 32,93 4,80" fill="#415c45"/><path d="M13 80L32 70L51 80L32 90Z" fill="none" stroke="#e6cf72" stroke-width="2" stroke-linecap="square"/><rect x="29" y="77" width="6" height="6" fill="#e6cf72"/></g>
  <g data-kind="command-post" transform="translate(64 192)"><polygon points="32,64 63,80 32,95 1,80" fill="#101815"/><polygon points="32,66 60,80 32,93 4,80" fill="#415c45"/><polygon points="13,72 31,45 51,72" fill="#101815"/><polygon points="17,70 31,49 47,70" fill="#d1b873"/><rect x="29" y="42" width="3" height="30" fill="#101815"/><rect x="32" y="43" width="15" height="9" fill="#ef6b61"/><rect x="19" y="70" width="28" height="9" fill="#304638"/><rect x="30" y="70" width="5" height="9" fill="#101815"/></g>
  <g data-kind="civilian-shelter" transform="translate(128 192)"><polygon points="32,64 63,80 32,95 1,80" fill="#101815"/><polygon points="32,66 60,80 32,93 4,80" fill="#415c45"/><polygon points="11,69 31,48 54,69" fill="#101815"/><polygon points="16,68 32,52 49,68" fill="#d1b873"/><rect x="16" y="68" width="33" height="11" fill="#304638"/><rect x="28" y="69" width="8" height="10" fill="#101815"/><path d="M39 57L45 62M39 62L45 57" fill="none" stroke="#e6cf72" stroke-width="2" stroke-linecap="square"/></g>
  <g data-kind="tree" transform="translate(192 192)"><rect x="28" y="53" width="9" height="28" fill="#101815"/><rect x="31" y="54" width="5" height="26" fill="#704b32"/><polygon points="8,56 21,36 18,36 32,13 46,36 43,36 56,56" fill="#101815"/><polygon points="13,53 25,35 23,35 32,19 41,35 39,35 51,53" fill="#315c3b"/><polygon points="19,42 27,30 32,19 35,36" fill="#4f8050"/></g>
  <g data-kind="rock" transform="translate(0 288)"><polygon points="9,80 15,61 29,52 47,58 56,80" fill="#101815"/><polygon points="14,77 19,63 30,56 44,61 51,77" fill="#65716b"/><polygon points="20,63 30,57 38,61 29,66" fill="#89958b"/><path d="M42 62L35 70L38 77" fill="none" stroke="#101815" stroke-width="2" stroke-linecap="square"/></g>
  <g data-kind="barricade" transform="translate(64 288)"><path d="M13 80L50 48M14 49L51 80" fill="none" stroke="#101815" stroke-width="10" stroke-linecap="square"/><path d="M13 80L50 48M14 49L51 80" fill="none" stroke="#8a5f36" stroke-width="6" stroke-linecap="square"/><path d="M8 62L56 62M8 73L56 73" fill="none" stroke="#101815" stroke-width="9" stroke-linecap="square"/><path d="M8 62L56 62M8 73L56 73" fill="none" stroke="#c08a4b" stroke-width="5" stroke-linecap="square"/></g>
</svg>
